# xmcd
#
# Track frame offsets:
#	150
#	12483
#	22145
#	30720
#	40593
#	52020
#	62520
#	74030
#	84750
#	93535
#	103831
#	112737
#	122089
#	131071
#	139704
#	149978
#	159826
#	170238
#	179959
#	190807
#	204378
#	216758
#	225733
#	237869
#	254682
#	268821
#	281753
#
# Disc length: 3913 seconds
#
# Revision: 1
# Processed by: cddbd v1.5.2PL0 Copyright (c) Steve Scherf et al.
# Submitted via: audiograbber 1.83.01
#
DISCID=a30f471b
DTITLE=Don Willians - Funny Familiar Forgotten Feelings
DYEAR=1900
DGENRE=
TTITLE0=Just One Time
TTITLE1=Far, Far Away
TTITLE2=Sweet Dreams
TTITLE3=What About Me
TTITLE4=Sea Of Heartbreak
TTITLE5=Lonesome Number One
TTITLE6=I Can Mend Your Broken Heart
TTITLE7=So How Come (No One Loves Me)
TTITLE8=Head Over Heels In Love With You
TTITLE9=Anything New Gets Old (Except My Love For You)
TTITLE10=Cause I Believe In You
TTITLE11=Again
TTITLE12=Watch Where You're Going
TTITLE13=A Born Loser
TTITLE14=(Yes) I'm Hurting
TTITLE15=Funny, Familiar, Forgotten Feelings
TTITLE16=Lost Highway
TTITLE17=All My Love
TTITLE18=Ashes Of Love
TTITLE19=Good Morning, Dear
TTITLE20=It's A Long, Long Way To Georgia
TTITLE21=Ever Changing Mind
TTITLE22=Rings Of Gold (Duet With Dottie West)
TTITLE23=Solitary
TTITLE24=Sweet Memories (Duet With Dottie West)
TTITLE25=I Will Always
TTITLE26=There's A Story (Duet With Dottie West)
EXTD=
EXTT0=
EXTT1=
EXTT2=
EXTT3=
EXTT4=
EXTT5=
EXTT6=
EXTT7=
EXTT8=
EXTT9=
EXTT10=
EXTT11=
EXTT12=
EXTT13=
EXTT14=
EXTT15=
EXTT16=
EXTT17=
EXTT18=
EXTT19=
EXTT20=
EXTT21=
EXTT22=
EXTT23=
EXTT24=
EXTT25=
EXTT26=
PLAYORDER=
